<mxfile host="app.diagrams.net" modified="2023-08-02T08:07:52.083Z" agent="Mozilla/5.0 (Windows NT 10.0; Win64; x64) AppleWebKit/537.36 (KHTML, like Gecko) Chrome/115.0.0.0 Safari/537.36" etag="n8WQNYxwnQpKn9wK1fzy" version="21.6.6" type="device" pages="3">
  <diagram id="8HCStm5KdboSv__WVgkv" name="sequence">
    <mxGraphModel dx="1364" dy="733" grid="1" gridSize="10" guides="1" tooltips="1" connect="1" arrows="1" fold="1" page="1" pageScale="1" pageWidth="827" pageHeight="1169" math="0" shadow="0">
      <root>
        <mxCell id="0" />
        <mxCell id="1" parent="0" />
        <mxCell id="Dz7MXjapaTTVEsUoQ1y9-11" style="rounded=0;orthogonalLoop=1;jettySize=auto;html=1;entryX=0.25;entryY=0;entryDx=0;entryDy=0;exitX=0.25;exitY=1;exitDx=0;exitDy=0;" parent="1" source="d1hqdmulXSLHXT-Yh-JI-24" target="Dz7MXjapaTTVEsUoQ1y9-10" edge="1">
          <mxGeometry relative="1" as="geometry">
            <mxPoint x="305" y="88.12" as="sourcePoint" />
            <mxPoint x="480" y="97.63000000000001" as="targetPoint" />
          </mxGeometry>
        </mxCell>
        <mxCell id="r9WT5VXXQhSiEH60edSq-6" style="rounded=0;orthogonalLoop=1;jettySize=auto;html=1;exitX=0.735;exitY=-0.021;exitDx=0;exitDy=0;exitPerimeter=0;entryX=0.75;entryY=1;entryDx=0;entryDy=0;" parent="1" source="Dz7MXjapaTTVEsUoQ1y9-10" target="d1hqdmulXSLHXT-Yh-JI-24" edge="1">
          <mxGeometry relative="1" as="geometry">
            <mxPoint x="431.13" y="81.89" as="sourcePoint" />
            <mxPoint x="365" y="71.89" as="targetPoint" />
          </mxGeometry>
        </mxCell>
        <mxCell id="Dz7MXjapaTTVEsUoQ1y9-25" style="edgeStyle=orthogonalEdgeStyle;curved=1;rounded=0;orthogonalLoop=1;jettySize=auto;html=1;exitX=0;exitY=0.5;exitDx=0;exitDy=0;exitPerimeter=0;endArrow=none;endFill=0;startArrow=classic;startFill=1;entryX=1;entryY=0.75;entryDx=0;entryDy=0;" parent="1" source="Dz7MXjapaTTVEsUoQ1y9-4" target="Dz7MXjapaTTVEsUoQ1y9-10" edge="1">
          <mxGeometry relative="1" as="geometry">
            <Array as="points">
              <mxPoint x="430" y="294" />
              <mxPoint x="430" y="270" />
              <mxPoint x="403" y="270" />
            </Array>
            <mxPoint x="427" y="260" as="targetPoint" />
          </mxGeometry>
        </mxCell>
        <mxCell id="Dz7MXjapaTTVEsUoQ1y9-4" value="Parameter" style="shape=cylinder3;whiteSpace=wrap;html=1;boundedLbl=1;backgroundOutline=1;size=8.142857142857167;fillColor=#e1d5e7;strokeColor=#9673a6;" parent="1" vertex="1">
          <mxGeometry x="474.62" y="273.75" width="94" height="40" as="geometry" />
        </mxCell>
        <mxCell id="Dz7MXjapaTTVEsUoQ1y9-23" style="edgeStyle=orthogonalEdgeStyle;curved=1;rounded=0;orthogonalLoop=1;jettySize=auto;html=1;exitX=0.5;exitY=1;exitDx=0;exitDy=0;entryX=1;entryY=0.5;entryDx=0;entryDy=0;entryPerimeter=0;" parent="1" source="Dz7MXjapaTTVEsUoQ1y9-6" target="Dz7MXjapaTTVEsUoQ1y9-4" edge="1">
          <mxGeometry relative="1" as="geometry" />
        </mxCell>
        <mxCell id="Dz7MXjapaTTVEsUoQ1y9-6" value="Trainer" style="rounded=1;whiteSpace=wrap;html=1;fillColor=#fff2cc;strokeColor=#d6b656;" parent="1" vertex="1">
          <mxGeometry x="607.87" y="228.75" width="60" height="30" as="geometry" />
        </mxCell>
        <mxCell id="Dz7MXjapaTTVEsUoQ1y9-7" style="edgeStyle=orthogonalEdgeStyle;rounded=0;orthogonalLoop=1;jettySize=auto;html=1;curved=1;exitX=0;exitY=0;exitDx=0;exitDy=0;" parent="1" edge="1">
          <mxGeometry relative="1" as="geometry">
            <Array as="points">
              <mxPoint x="250" y="61.39000000000001" />
              <mxPoint x="250" y="79.39000000000001" />
            </Array>
            <mxPoint x="270.00132782874846" y="61.020746262057024" as="sourcePoint" />
            <mxPoint x="270" y="79.39000000000001" as="targetPoint" />
          </mxGeometry>
        </mxCell>
        <mxCell id="Dz7MXjapaTTVEsUoQ1y9-8" value="step" style="text;html=1;strokeColor=none;fillColor=none;align=center;verticalAlign=middle;whiteSpace=wrap;rounded=0;" parent="1" vertex="1">
          <mxGeometry x="200" y="53.13000000000002" width="60" height="30" as="geometry" />
        </mxCell>
        <mxCell id="Dz7MXjapaTTVEsUoQ1y9-17" style="edgeStyle=orthogonalEdgeStyle;curved=1;rounded=0;orthogonalLoop=1;jettySize=auto;html=1;entryX=0.5;entryY=1;entryDx=0;entryDy=0;entryPerimeter=0;exitX=1;exitY=0.25;exitDx=0;exitDy=0;" parent="1" source="Dz7MXjapaTTVEsUoQ1y9-10" target="Dz7MXjapaTTVEsUoQ1y9-3" edge="1">
          <mxGeometry relative="1" as="geometry">
            <Array as="points">
              <mxPoint x="430" y="253" />
              <mxPoint x="430" y="199" />
              <mxPoint x="453" y="199" />
            </Array>
            <mxPoint x="450" y="194.69499999999994" as="sourcePoint" />
          </mxGeometry>
        </mxCell>
        <mxCell id="Dz7MXjapaTTVEsUoQ1y9-12" value="observation /&amp;nbsp;reward" style="text;html=1;strokeColor=none;fillColor=none;align=center;verticalAlign=middle;whiteSpace=wrap;rounded=0;" parent="1" vertex="1">
          <mxGeometry x="174" y="143.74999999999997" width="130" height="30" as="geometry" />
        </mxCell>
        <mxCell id="Dz7MXjapaTTVEsUoQ1y9-15" value="action" style="text;html=1;strokeColor=none;fillColor=none;align=center;verticalAlign=middle;whiteSpace=wrap;rounded=0;" parent="1" vertex="1">
          <mxGeometry x="370" y="143.75" width="60" height="30" as="geometry" />
        </mxCell>
        <mxCell id="Dz7MXjapaTTVEsUoQ1y9-16" value="" style="group" parent="1" vertex="1" connectable="0">
          <mxGeometry x="452.87" y="182.5" width="137.5" height="32.5" as="geometry" />
        </mxCell>
        <mxCell id="Dz7MXjapaTTVEsUoQ1y9-3" value="" style="shape=cylinder3;whiteSpace=wrap;html=1;boundedLbl=1;backgroundOutline=1;size=15;rotation=90;fillColor=#e1d5e7;strokeColor=#9673a6;" parent="Dz7MXjapaTTVEsUoQ1y9-16" vertex="1">
          <mxGeometry x="52.5" y="-52.5" width="32.5" height="137.5" as="geometry" />
        </mxCell>
        <mxCell id="Dz7MXjapaTTVEsUoQ1y9-5" value="RemoteMemory" style="text;html=1;strokeColor=none;fillColor=none;align=center;verticalAlign=middle;whiteSpace=wrap;rounded=0;" parent="Dz7MXjapaTTVEsUoQ1y9-16" vertex="1">
          <mxGeometry x="25" y="1.25" width="60" height="30" as="geometry" />
        </mxCell>
        <mxCell id="Dz7MXjapaTTVEsUoQ1y9-18" value="add batch" style="text;html=1;strokeColor=none;fillColor=none;align=center;verticalAlign=middle;whiteSpace=wrap;rounded=0;" parent="1" vertex="1">
          <mxGeometry x="440" y="215" width="60" height="30" as="geometry" />
        </mxCell>
        <mxCell id="Dz7MXjapaTTVEsUoQ1y9-19" style="edgeStyle=orthogonalEdgeStyle;curved=1;rounded=0;orthogonalLoop=1;jettySize=auto;html=1;exitX=0.5;exitY=0;exitDx=0;exitDy=0;exitPerimeter=0;entryX=0.5;entryY=0;entryDx=0;entryDy=0;" parent="1" source="Dz7MXjapaTTVEsUoQ1y9-3" target="Dz7MXjapaTTVEsUoQ1y9-6" edge="1">
          <mxGeometry relative="1" as="geometry" />
        </mxCell>
        <mxCell id="Dz7MXjapaTTVEsUoQ1y9-20" value="sample batch" style="text;html=1;strokeColor=none;fillColor=none;align=center;verticalAlign=middle;whiteSpace=wrap;rounded=0;" parent="1" vertex="1">
          <mxGeometry x="592.87" y="173.75" width="90" height="30" as="geometry" />
        </mxCell>
        <mxCell id="Dz7MXjapaTTVEsUoQ1y9-24" value="update" style="text;html=1;strokeColor=none;fillColor=none;align=center;verticalAlign=middle;whiteSpace=wrap;rounded=0;" parent="1" vertex="1">
          <mxGeometry x="592.87" y="283.75" width="85" height="30" as="geometry" />
        </mxCell>
        <mxCell id="Dz7MXjapaTTVEsUoQ1y9-26" value="read" style="text;html=1;strokeColor=none;fillColor=none;align=center;verticalAlign=middle;whiteSpace=wrap;rounded=0;" parent="1" vertex="1">
          <mxGeometry x="402.87" y="290" width="60" height="30" as="geometry" />
        </mxCell>
        <mxCell id="1H51r3odysx_p06SB7lt-1" style="edgeStyle=orthogonalEdgeStyle;curved=1;rounded=0;orthogonalLoop=1;jettySize=auto;html=1;" parent="1" source="Dz7MXjapaTTVEsUoQ1y9-6" target="Dz7MXjapaTTVEsUoQ1y9-6" edge="1">
          <mxGeometry relative="1" as="geometry">
            <mxPoint x="657.87" y="272.5" as="sourcePoint" />
            <mxPoint x="568.62" y="303.75" as="targetPoint" />
          </mxGeometry>
        </mxCell>
        <mxCell id="1H51r3odysx_p06SB7lt-2" value="train" style="text;html=1;strokeColor=none;fillColor=none;align=center;verticalAlign=middle;whiteSpace=wrap;rounded=0;" parent="1" vertex="1">
          <mxGeometry x="667.87" y="228.75" width="85" height="30" as="geometry" />
        </mxCell>
        <mxCell id="d1hqdmulXSLHXT-Yh-JI-24" value="Environment" style="rounded=1;whiteSpace=wrap;html=1;fillColor=#d5e8d4;strokeColor=#82b366;" parent="1" vertex="1">
          <mxGeometry x="270" y="53.13" width="130" height="32.51" as="geometry" />
        </mxCell>
        <mxCell id="r9WT5VXXQhSiEH60edSq-1" value="EnvRun&lt;br&gt;(Keep run-time state)" style="rounded=1;whiteSpace=wrap;html=1;fillColor=#d5e8d4;strokeColor=#82b366;" parent="1" vertex="1">
          <mxGeometry x="270" y="103.75" width="130" height="40" as="geometry" />
        </mxCell>
        <mxCell id="r9WT5VXXQhSiEH60edSq-2" value="WorkerRun&lt;br&gt;(Keep run-time state)" style="rounded=1;whiteSpace=wrap;html=1;fillColor=#dae8fc;strokeColor=#6c8ebf;" parent="1" vertex="1">
          <mxGeometry x="270" y="184.5" width="130" height="45" as="geometry" />
        </mxCell>
        <mxCell id="Dz7MXjapaTTVEsUoQ1y9-10" value="Worker" style="rounded=1;whiteSpace=wrap;html=1;fillColor=#dae8fc;strokeColor=#6c8ebf;" parent="1" vertex="1">
          <mxGeometry x="270" y="244.37" width="130" height="33.75" as="geometry" />
        </mxCell>
        <mxCell id="eSRxUEwJaX7oG8RVJNS5-2" value="decode" style="rounded=0;whiteSpace=wrap;html=1;fillColor=#f8cecc;strokeColor=#b85450;" parent="1" vertex="1">
          <mxGeometry x="340" y="170" width="50" height="20" as="geometry" />
        </mxCell>
        <mxCell id="eSRxUEwJaX7oG8RVJNS5-1" value="encode" style="rounded=0;whiteSpace=wrap;html=1;fillColor=#f8cecc;strokeColor=#b85450;" parent="1" vertex="1">
          <mxGeometry x="280" y="170" width="50" height="20" as="geometry" />
        </mxCell>
      </root>
    </mxGraphModel>
  </diagram>
  <diagram id="YnyO58ju2ZsBTfj123Jh" name="distributed">
    <mxGraphModel dx="1364" dy="733" grid="1" gridSize="10" guides="1" tooltips="1" connect="1" arrows="1" fold="1" page="1" pageScale="1" pageWidth="827" pageHeight="1169" math="0" shadow="0">
      <root>
        <mxCell id="Gu4-0b2xn2e90pc047bY-0" />
        <mxCell id="Gu4-0b2xn2e90pc047bY-1" parent="Gu4-0b2xn2e90pc047bY-0" />
        <mxCell id="szc0OzaTAx6EitnLWger-1" value="" style="rounded=0;whiteSpace=wrap;html=1;" parent="Gu4-0b2xn2e90pc047bY-1" vertex="1">
          <mxGeometry x="510" y="163.75" width="155" height="137.5" as="geometry" />
        </mxCell>
        <mxCell id="wtMo23867lj7A6iBCIME-0" value="" style="rounded=0;whiteSpace=wrap;html=1;" parent="Gu4-0b2xn2e90pc047bY-1" vertex="1">
          <mxGeometry x="60" y="110" width="290" height="110" as="geometry" />
        </mxCell>
        <mxCell id="RoZq5j0I4huKhHa5UfBf-0" style="edgeStyle=none;rounded=0;orthogonalLoop=1;jettySize=auto;html=1;exitX=1;exitY=0.5;exitDx=0;exitDy=0;startArrow=classic;startFill=1;" parent="Gu4-0b2xn2e90pc047bY-1" source="hCgiPdKvAsC8QuEQ23qE-1" target="hCgiPdKvAsC8QuEQ23qE-10" edge="1">
          <mxGeometry relative="1" as="geometry" />
        </mxCell>
        <mxCell id="hCgiPdKvAsC8QuEQ23qE-1" value="Environment" style="ellipse;whiteSpace=wrap;html=1;fillColor=#d5e8d4;strokeColor=#82b366;" parent="Gu4-0b2xn2e90pc047bY-1" vertex="1">
          <mxGeometry x="70" y="137.5" width="90" height="40" as="geometry" />
        </mxCell>
        <mxCell id="hCgiPdKvAsC8QuEQ23qE-4" style="rounded=0;orthogonalLoop=1;jettySize=auto;html=1;exitX=0.5;exitY=1;exitDx=0;exitDy=0;entryX=0.5;entryY=0;entryDx=0;entryDy=0;entryPerimeter=0;" parent="Gu4-0b2xn2e90pc047bY-1" source="hCgiPdKvAsC8QuEQ23qE-5" target="3Zu5WteFrr1FcEvkHmud-0" edge="1">
          <mxGeometry relative="1" as="geometry" />
        </mxCell>
        <mxCell id="9uBo-6KRhyvI6lXKB4fs-0" style="edgeStyle=orthogonalEdgeStyle;rounded=0;orthogonalLoop=1;jettySize=auto;html=1;curved=1;" parent="Gu4-0b2xn2e90pc047bY-1" source="hCgiPdKvAsC8QuEQ23qE-5" target="hCgiPdKvAsC8QuEQ23qE-14" edge="1">
          <mxGeometry relative="1" as="geometry" />
        </mxCell>
        <mxCell id="hCgiPdKvAsC8QuEQ23qE-5" value="Trainer" style="rounded=1;whiteSpace=wrap;html=1;fillColor=#fff2cc;strokeColor=#d6b656;" parent="Gu4-0b2xn2e90pc047bY-1" vertex="1">
          <mxGeometry x="572.25" y="194.38" width="70" height="38.75" as="geometry" />
        </mxCell>
        <mxCell id="hCgiPdKvAsC8QuEQ23qE-9" style="edgeStyle=orthogonalEdgeStyle;curved=1;rounded=0;orthogonalLoop=1;jettySize=auto;html=1;exitX=1;exitY=0.5;exitDx=0;exitDy=0;entryX=0.5;entryY=1;entryDx=0;entryDy=0;entryPerimeter=0;" parent="Gu4-0b2xn2e90pc047bY-1" source="hCgiPdKvAsC8QuEQ23qE-10" target="hCgiPdKvAsC8QuEQ23qE-14" edge="1">
          <mxGeometry relative="1" as="geometry" />
        </mxCell>
        <mxCell id="hCgiPdKvAsC8QuEQ23qE-10" value="Worker" style="rounded=1;whiteSpace=wrap;html=1;fillColor=#dae8fc;strokeColor=#6c8ebf;" parent="Gu4-0b2xn2e90pc047bY-1" vertex="1">
          <mxGeometry x="191" y="142.5" width="60" height="30" as="geometry" />
        </mxCell>
        <mxCell id="hCgiPdKvAsC8QuEQ23qE-13" value="" style="group" parent="Gu4-0b2xn2e90pc047bY-1" vertex="1" connectable="0">
          <mxGeometry x="420" y="110" width="105" height="135.14" as="geometry" />
        </mxCell>
        <mxCell id="hCgiPdKvAsC8QuEQ23qE-14" value="" style="shape=cylinder3;whiteSpace=wrap;html=1;boundedLbl=1;backgroundOutline=1;size=15;rotation=90;fillColor=#e1d5e7;strokeColor=#9673a6;" parent="hCgiPdKvAsC8QuEQ23qE-13" vertex="1">
          <mxGeometry x="33.96" y="-48.85" width="34.91" height="145.09" as="geometry" />
        </mxCell>
        <mxCell id="hCgiPdKvAsC8QuEQ23qE-15" value="[Server]&lt;br&gt;RemoteMemory" style="text;html=1;strokeColor=none;fillColor=none;align=center;verticalAlign=middle;whiteSpace=wrap;rounded=0;" parent="hCgiPdKvAsC8QuEQ23qE-13" vertex="1">
          <mxGeometry x="23.050909090909087" y="-2.838461538461538" width="45.81818181818181" height="53.07692307692308" as="geometry" />
        </mxCell>
        <mxCell id="9uBo-6KRhyvI6lXKB4fs-1" value="update batch" style="text;html=1;strokeColor=none;fillColor=none;align=center;verticalAlign=middle;whiteSpace=wrap;rounded=0;" parent="hCgiPdKvAsC8QuEQ23qE-13" vertex="1">
          <mxGeometry x="-21.129999999999995" y="70" width="90" height="30" as="geometry" />
        </mxCell>
        <mxCell id="hCgiPdKvAsC8QuEQ23qE-17" style="edgeStyle=orthogonalEdgeStyle;curved=1;rounded=0;orthogonalLoop=1;jettySize=auto;html=1;exitX=0.5;exitY=0;exitDx=0;exitDy=0;exitPerimeter=0;entryX=0.5;entryY=0;entryDx=0;entryDy=0;" parent="Gu4-0b2xn2e90pc047bY-1" source="hCgiPdKvAsC8QuEQ23qE-14" target="hCgiPdKvAsC8QuEQ23qE-5" edge="1">
          <mxGeometry relative="1" as="geometry" />
        </mxCell>
        <mxCell id="hCgiPdKvAsC8QuEQ23qE-18" value="sample batch" style="text;html=1;strokeColor=none;fillColor=none;align=center;verticalAlign=middle;whiteSpace=wrap;rounded=0;" parent="Gu4-0b2xn2e90pc047bY-1" vertex="1">
          <mxGeometry x="560.25" y="112.5" width="90" height="30" as="geometry" />
        </mxCell>
        <mxCell id="hCgiPdKvAsC8QuEQ23qE-19" value="update" style="text;html=1;strokeColor=none;fillColor=none;align=center;verticalAlign=middle;whiteSpace=wrap;rounded=0;" parent="Gu4-0b2xn2e90pc047bY-1" vertex="1">
          <mxGeometry x="535" y="226.88" width="85" height="30" as="geometry" />
        </mxCell>
        <mxCell id="tBLzW1-dSC8KAft304s7-12" style="rounded=0;orthogonalLoop=1;jettySize=auto;html=1;exitX=0;exitY=0.5;exitDx=0;exitDy=0;exitPerimeter=0;startArrow=none;startFill=0;entryX=1;entryY=0.5;entryDx=0;entryDy=0;" parent="Gu4-0b2xn2e90pc047bY-1" source="3Zu5WteFrr1FcEvkHmud-0" target="3Zu5WteFrr1FcEvkHmud-2" edge="1">
          <mxGeometry relative="1" as="geometry">
            <mxPoint x="505" y="278.13" as="targetPoint" />
          </mxGeometry>
        </mxCell>
        <mxCell id="3Zu5WteFrr1FcEvkHmud-0" value="Parameter" style="shape=cylinder3;whiteSpace=wrap;html=1;boundedLbl=1;backgroundOutline=1;size=8.142857142857167;fillColor=#e1d5e7;strokeColor=#9673a6;" parent="Gu4-0b2xn2e90pc047bY-1" vertex="1">
          <mxGeometry x="560.25" y="258.13" width="94" height="40" as="geometry" />
        </mxCell>
        <mxCell id="3Zu5WteFrr1FcEvkHmud-2" value="[Server]&lt;br&gt;RemoteBoard" style="rounded=1;whiteSpace=wrap;html=1;fillColor=#e1d5e7;strokeColor=#9673a6;" parent="Gu4-0b2xn2e90pc047bY-1" vertex="1">
          <mxGeometry x="390" y="259.69" width="110" height="36.87" as="geometry" />
        </mxCell>
        <mxCell id="3Zu5WteFrr1FcEvkHmud-5" value="write" style="text;html=1;strokeColor=none;fillColor=none;align=center;verticalAlign=middle;whiteSpace=wrap;rounded=0;" parent="Gu4-0b2xn2e90pc047bY-1" vertex="1">
          <mxGeometry x="487.25" y="250" width="85" height="30" as="geometry" />
        </mxCell>
        <mxCell id="AqlXkb-w7h_acBey4eJv-0" value="write" style="text;html=1;strokeColor=none;fillColor=none;align=center;verticalAlign=middle;whiteSpace=wrap;rounded=0;" parent="Gu4-0b2xn2e90pc047bY-1" vertex="1">
          <mxGeometry x="340" y="233.13" width="85" height="30" as="geometry" />
        </mxCell>
        <mxCell id="wtMo23867lj7A6iBCIME-1" value="TrainerProcess&lt;br&gt;" style="text;html=1;strokeColor=none;fillColor=none;align=center;verticalAlign=middle;whiteSpace=wrap;rounded=0;" parent="Gu4-0b2xn2e90pc047bY-1" vertex="1">
          <mxGeometry x="527" y="164.38" width="60" height="30" as="geometry" />
        </mxCell>
        <mxCell id="s0bxHy9ZseCvG_myIAhX-0" style="edgeStyle=orthogonalEdgeStyle;rounded=0;orthogonalLoop=1;jettySize=auto;html=1;exitX=0;exitY=0.5;exitDx=0;exitDy=0;exitPerimeter=0;entryX=0.5;entryY=1;entryDx=0;entryDy=0;startArrow=classic;startFill=1;endArrow=none;endFill=0;" parent="Gu4-0b2xn2e90pc047bY-1" source="hCgiPdKvAsC8QuEQ23qE-3" target="hCgiPdKvAsC8QuEQ23qE-10" edge="1">
          <mxGeometry relative="1" as="geometry" />
        </mxCell>
        <mxCell id="hCgiPdKvAsC8QuEQ23qE-3" value="Parameter" style="shape=cylinder3;whiteSpace=wrap;html=1;boundedLbl=1;backgroundOutline=1;size=8.142857142857167;fillColor=#e1d5e7;strokeColor=#9673a6;" parent="Gu4-0b2xn2e90pc047bY-1" vertex="1">
          <mxGeometry x="251" y="173.75" width="84" height="40" as="geometry" />
        </mxCell>
        <mxCell id="tBLzW1-dSC8KAft304s7-1" value="" style="rounded=0;whiteSpace=wrap;html=1;" parent="Gu4-0b2xn2e90pc047bY-1" vertex="1">
          <mxGeometry x="60" y="232.5" width="290" height="105" as="geometry" />
        </mxCell>
        <mxCell id="tBLzW1-dSC8KAft304s7-2" style="edgeStyle=none;rounded=0;orthogonalLoop=1;jettySize=auto;html=1;exitX=1;exitY=0.5;exitDx=0;exitDy=0;startArrow=classic;startFill=1;" parent="Gu4-0b2xn2e90pc047bY-1" source="tBLzW1-dSC8KAft304s7-3" target="tBLzW1-dSC8KAft304s7-4" edge="1">
          <mxGeometry relative="1" as="geometry" />
        </mxCell>
        <mxCell id="tBLzW1-dSC8KAft304s7-3" value="Environment" style="ellipse;whiteSpace=wrap;html=1;fillColor=#d5e8d4;strokeColor=#82b366;" parent="Gu4-0b2xn2e90pc047bY-1" vertex="1">
          <mxGeometry x="70" y="255" width="90" height="40" as="geometry" />
        </mxCell>
        <mxCell id="tBLzW1-dSC8KAft304s7-4" value="Worker" style="rounded=1;whiteSpace=wrap;html=1;fillColor=#dae8fc;strokeColor=#6c8ebf;" parent="Gu4-0b2xn2e90pc047bY-1" vertex="1">
          <mxGeometry x="191" y="260" width="60" height="30" as="geometry" />
        </mxCell>
        <mxCell id="tBLzW1-dSC8KAft304s7-5" value="add batch" style="text;html=1;strokeColor=none;fillColor=none;align=center;verticalAlign=middle;whiteSpace=wrap;rounded=0;" parent="Gu4-0b2xn2e90pc047bY-1" vertex="1">
          <mxGeometry x="354" y="90" width="60" height="30" as="geometry" />
        </mxCell>
        <mxCell id="tBLzW1-dSC8KAft304s7-7" value="ActorProcess2" style="text;html=1;strokeColor=none;fillColor=none;align=center;verticalAlign=middle;whiteSpace=wrap;rounded=0;" parent="Gu4-0b2xn2e90pc047bY-1" vertex="1">
          <mxGeometry x="85" y="307.5" width="60" height="30" as="geometry" />
        </mxCell>
        <mxCell id="tBLzW1-dSC8KAft304s7-8" style="edgeStyle=orthogonalEdgeStyle;rounded=0;orthogonalLoop=1;jettySize=auto;html=1;exitX=0;exitY=0.5;exitDx=0;exitDy=0;exitPerimeter=0;entryX=0.5;entryY=1;entryDx=0;entryDy=0;startArrow=classic;startFill=1;endArrow=none;endFill=0;" parent="Gu4-0b2xn2e90pc047bY-1" source="tBLzW1-dSC8KAft304s7-9" target="tBLzW1-dSC8KAft304s7-4" edge="1">
          <mxGeometry relative="1" as="geometry" />
        </mxCell>
        <mxCell id="tBLzW1-dSC8KAft304s7-9" value="Parameter" style="shape=cylinder3;whiteSpace=wrap;html=1;boundedLbl=1;backgroundOutline=1;size=8.142857142857167;fillColor=#e1d5e7;strokeColor=#9673a6;" parent="Gu4-0b2xn2e90pc047bY-1" vertex="1">
          <mxGeometry x="251" y="291.25" width="84" height="40" as="geometry" />
        </mxCell>
        <mxCell id="3Zu5WteFrr1FcEvkHmud-4" style="edgeStyle=orthogonalEdgeStyle;curved=1;rounded=0;orthogonalLoop=1;jettySize=auto;html=1;exitX=0;exitY=0.5;exitDx=0;exitDy=0;entryX=1;entryY=0.5;entryDx=0;entryDy=0;entryPerimeter=0;" parent="Gu4-0b2xn2e90pc047bY-1" source="3Zu5WteFrr1FcEvkHmud-2" target="tBLzW1-dSC8KAft304s7-9" edge="1">
          <mxGeometry relative="1" as="geometry">
            <mxPoint x="340" y="280" as="targetPoint" />
          </mxGeometry>
        </mxCell>
        <mxCell id="tBLzW1-dSC8KAft304s7-11" style="edgeStyle=orthogonalEdgeStyle;curved=1;rounded=0;orthogonalLoop=1;jettySize=auto;html=1;exitX=0;exitY=0.5;exitDx=0;exitDy=0;entryX=1;entryY=0.5;entryDx=0;entryDy=0;entryPerimeter=0;" parent="Gu4-0b2xn2e90pc047bY-1" source="3Zu5WteFrr1FcEvkHmud-2" target="hCgiPdKvAsC8QuEQ23qE-3" edge="1">
          <mxGeometry relative="1" as="geometry">
            <mxPoint x="430" y="289.375" as="sourcePoint" />
            <mxPoint x="345" y="338.75" as="targetPoint" />
          </mxGeometry>
        </mxCell>
        <mxCell id="szc0OzaTAx6EitnLWger-0" style="edgeStyle=orthogonalEdgeStyle;curved=1;rounded=0;orthogonalLoop=1;jettySize=auto;html=1;exitX=1;exitY=0.5;exitDx=0;exitDy=0;entryX=0.5;entryY=1;entryDx=0;entryDy=0;entryPerimeter=0;" parent="Gu4-0b2xn2e90pc047bY-1" source="tBLzW1-dSC8KAft304s7-4" target="hCgiPdKvAsC8QuEQ23qE-14" edge="1">
          <mxGeometry relative="1" as="geometry">
            <mxPoint x="270" y="172.5" as="sourcePoint" />
            <mxPoint x="397.75" y="155" as="targetPoint" />
            <Array as="points">
              <mxPoint x="360" y="275" />
              <mxPoint x="360" y="134" />
            </Array>
          </mxGeometry>
        </mxCell>
        <mxCell id="szc0OzaTAx6EitnLWger-2" value="ActorProcess1" style="text;html=1;strokeColor=none;fillColor=none;align=center;verticalAlign=middle;whiteSpace=wrap;rounded=0;" parent="Gu4-0b2xn2e90pc047bY-1" vertex="1">
          <mxGeometry x="85" y="190" width="60" height="30" as="geometry" />
        </mxCell>
        <mxCell id="OitwZkqVeGQr4RYmDPEj-0" value="read" style="text;html=1;strokeColor=none;fillColor=none;align=center;verticalAlign=middle;whiteSpace=wrap;rounded=0;" parent="Gu4-0b2xn2e90pc047bY-1" vertex="1">
          <mxGeometry x="178.5" y="190" width="85" height="30" as="geometry" />
        </mxCell>
        <mxCell id="OitwZkqVeGQr4RYmDPEj-1" value="read" style="text;html=1;strokeColor=none;fillColor=none;align=center;verticalAlign=middle;whiteSpace=wrap;rounded=0;" parent="Gu4-0b2xn2e90pc047bY-1" vertex="1">
          <mxGeometry x="178.5" y="307.5" width="85" height="30" as="geometry" />
        </mxCell>
        <mxCell id="kCqVgma3XV1lT6b6pAQM-0" value="Actor2" style="text;html=1;strokeColor=none;fillColor=none;align=center;verticalAlign=middle;whiteSpace=wrap;rounded=0;" parent="Gu4-0b2xn2e90pc047bY-1" vertex="1">
          <mxGeometry x="166" y="230" width="85" height="30" as="geometry" />
        </mxCell>
        <mxCell id="poEfYwCH7WY_hgwnwSG5-0" value="Actor1" style="text;html=1;strokeColor=none;fillColor=none;align=center;verticalAlign=middle;whiteSpace=wrap;rounded=0;" parent="Gu4-0b2xn2e90pc047bY-1" vertex="1">
          <mxGeometry x="162.5" y="107.5" width="85" height="30" as="geometry" />
        </mxCell>
        <mxCell id="Nvs9mhA8swCKkjgWe2Xr-0" value="・・・" style="text;html=1;strokeColor=none;fillColor=none;align=center;verticalAlign=middle;whiteSpace=wrap;rounded=0;fontStyle=0" parent="Gu4-0b2xn2e90pc047bY-1" vertex="1">
          <mxGeometry x="160" y="350" width="85" height="30" as="geometry" />
        </mxCell>
      </root>
    </mxGraphModel>
  </diagram>
  <diagram id="8ljoofoabtsPVLnk0Y_w" name="multiplay">
    <mxGraphModel dx="1364" dy="733" grid="1" gridSize="10" guides="1" tooltips="1" connect="1" arrows="1" fold="1" page="1" pageScale="1" pageWidth="827" pageHeight="1169" math="0" shadow="0">
      <root>
        <mxCell id="-tAiIZP5slMnOxf2c5f_-0" />
        <mxCell id="-tAiIZP5slMnOxf2c5f_-1" parent="-tAiIZP5slMnOxf2c5f_-0" />
        <mxCell id="Lr9z2r6yjGcZo_QZBl7X-0" value="" style="rounded=0;whiteSpace=wrap;html=1;" parent="-tAiIZP5slMnOxf2c5f_-1" vertex="1">
          <mxGeometry x="149.5" y="330" width="370.5" height="120" as="geometry" />
        </mxCell>
        <mxCell id="Lr9z2r6yjGcZo_QZBl7X-3" value="WorkerA" style="rounded=1;whiteSpace=wrap;html=1;fillColor=#dae8fc;strokeColor=#6c8ebf;" parent="-tAiIZP5slMnOxf2c5f_-1" vertex="1">
          <mxGeometry x="450" y="350" width="60" height="30" as="geometry" />
        </mxCell>
        <mxCell id="Lr9z2r6yjGcZo_QZBl7X-8" value="Actor" style="text;html=1;strokeColor=none;fillColor=none;align=center;verticalAlign=middle;whiteSpace=wrap;rounded=0;" parent="-tAiIZP5slMnOxf2c5f_-1" vertex="1">
          <mxGeometry x="142" y="330" width="85" height="30" as="geometry" />
        </mxCell>
        <mxCell id="vBa4fYk8NrU3yPCKN6xu-12" style="rounded=0;orthogonalLoop=1;jettySize=auto;html=1;exitX=1;exitY=0.5;exitDx=0;exitDy=0;entryX=0;entryY=0.5;entryDx=0;entryDy=0;dashed=1;" parent="-tAiIZP5slMnOxf2c5f_-1" source="rAPJDmcHNUlQ_y6YH2tv-0" target="vBa4fYk8NrU3yPCKN6xu-11" edge="1">
          <mxGeometry relative="1" as="geometry" />
        </mxCell>
        <mxCell id="rAPJDmcHNUlQ_y6YH2tv-0" value="Player1" style="rounded=1;whiteSpace=wrap;html=1;fillColor=#dae8fc;strokeColor=#6c8ebf;" parent="-tAiIZP5slMnOxf2c5f_-1" vertex="1">
          <mxGeometry x="280.75" y="350" width="60" height="30" as="geometry" />
        </mxCell>
        <mxCell id="Fywf5wE0uVQSaH7Zr0TA-0" value="WorkerB" style="rounded=1;whiteSpace=wrap;html=1;fillColor=#dae8fc;strokeColor=#6c8ebf;" parent="-tAiIZP5slMnOxf2c5f_-1" vertex="1">
          <mxGeometry x="450" y="390" width="60" height="30" as="geometry" />
        </mxCell>
        <mxCell id="Fywf5wE0uVQSaH7Zr0TA-1" value="Player2" style="rounded=1;whiteSpace=wrap;html=1;fillColor=#dae8fc;strokeColor=#6c8ebf;" parent="-tAiIZP5slMnOxf2c5f_-1" vertex="1">
          <mxGeometry x="280.75" y="390" width="60" height="30" as="geometry" />
        </mxCell>
        <mxCell id="Fywf5wE0uVQSaH7Zr0TA-2" value="・・・" style="text;html=1;strokeColor=none;fillColor=none;align=center;verticalAlign=middle;whiteSpace=wrap;rounded=0;" parent="-tAiIZP5slMnOxf2c5f_-1" vertex="1">
          <mxGeometry x="455" y="420" width="50" height="30" as="geometry" />
        </mxCell>
        <mxCell id="Fywf5wE0uVQSaH7Zr0TA-3" value="・・・" style="text;html=1;strokeColor=none;fillColor=none;align=center;verticalAlign=middle;whiteSpace=wrap;rounded=0;" parent="-tAiIZP5slMnOxf2c5f_-1" vertex="1">
          <mxGeometry x="285.75" y="420" width="50" height="30" as="geometry" />
        </mxCell>
        <mxCell id="vBa4fYk8NrU3yPCKN6xu-3" style="rounded=0;orthogonalLoop=1;jettySize=auto;html=1;exitX=1;exitY=0.5;exitDx=0;exitDy=0;entryX=0;entryY=0.5;entryDx=0;entryDy=0;" parent="-tAiIZP5slMnOxf2c5f_-1" source="vBa4fYk8NrU3yPCKN6xu-1" target="rAPJDmcHNUlQ_y6YH2tv-0" edge="1">
          <mxGeometry relative="1" as="geometry" />
        </mxCell>
        <mxCell id="vBa4fYk8NrU3yPCKN6xu-4" style="rounded=0;orthogonalLoop=1;jettySize=auto;html=1;exitX=1;exitY=0.5;exitDx=0;exitDy=0;entryX=0;entryY=0.5;entryDx=0;entryDy=0;" parent="-tAiIZP5slMnOxf2c5f_-1" source="vBa4fYk8NrU3yPCKN6xu-1" target="Fywf5wE0uVQSaH7Zr0TA-1" edge="1">
          <mxGeometry relative="1" as="geometry" />
        </mxCell>
        <mxCell id="vBa4fYk8NrU3yPCKN6xu-1" value="Environment" style="rounded=1;whiteSpace=wrap;html=1;fillColor=#d5e8d4;strokeColor=#82b366;" parent="-tAiIZP5slMnOxf2c5f_-1" vertex="1">
          <mxGeometry x="160" y="371.26" width="95.5" height="28.74" as="geometry" />
        </mxCell>
        <mxCell id="vBa4fYk8NrU3yPCKN6xu-10" value="Shuffling is achieved by changing the association between Player and Worker." style="text;html=1;strokeColor=none;fillColor=none;align=center;verticalAlign=middle;whiteSpace=wrap;rounded=0;" parent="-tAiIZP5slMnOxf2c5f_-1" vertex="1">
          <mxGeometry x="280.75" y="440" width="229.25" height="55" as="geometry" />
        </mxCell>
        <mxCell id="vBa4fYk8NrU3yPCKN6xu-11" value="relation&lt;br&gt;table" style="rounded=0;whiteSpace=wrap;html=1;" parent="-tAiIZP5slMnOxf2c5f_-1" vertex="1">
          <mxGeometry x="363.25" y="370" width="60" height="30" as="geometry" />
        </mxCell>
        <mxCell id="vBa4fYk8NrU3yPCKN6xu-13" style="rounded=0;orthogonalLoop=1;jettySize=auto;html=1;exitX=1;exitY=0.5;exitDx=0;exitDy=0;entryX=0;entryY=0.5;entryDx=0;entryDy=0;dashed=1;" parent="-tAiIZP5slMnOxf2c5f_-1" source="Fywf5wE0uVQSaH7Zr0TA-1" target="vBa4fYk8NrU3yPCKN6xu-11" edge="1">
          <mxGeometry relative="1" as="geometry">
            <mxPoint x="351" y="375" as="sourcePoint" />
            <mxPoint x="380" y="395" as="targetPoint" />
          </mxGeometry>
        </mxCell>
        <mxCell id="vBa4fYk8NrU3yPCKN6xu-14" style="rounded=0;orthogonalLoop=1;jettySize=auto;html=1;exitX=1;exitY=0.5;exitDx=0;exitDy=0;entryX=0;entryY=0.5;entryDx=0;entryDy=0;dashed=1;" parent="-tAiIZP5slMnOxf2c5f_-1" source="vBa4fYk8NrU3yPCKN6xu-11" target="Lr9z2r6yjGcZo_QZBl7X-3" edge="1">
          <mxGeometry relative="1" as="geometry">
            <mxPoint x="351" y="375" as="sourcePoint" />
            <mxPoint x="373" y="395" as="targetPoint" />
          </mxGeometry>
        </mxCell>
        <mxCell id="vBa4fYk8NrU3yPCKN6xu-15" style="rounded=0;orthogonalLoop=1;jettySize=auto;html=1;exitX=1;exitY=0.5;exitDx=0;exitDy=0;entryX=0;entryY=0.5;entryDx=0;entryDy=0;dashed=1;" parent="-tAiIZP5slMnOxf2c5f_-1" source="vBa4fYk8NrU3yPCKN6xu-11" target="Fywf5wE0uVQSaH7Zr0TA-0" edge="1">
          <mxGeometry relative="1" as="geometry">
            <mxPoint x="433" y="395" as="sourcePoint" />
            <mxPoint x="460" y="375" as="targetPoint" />
          </mxGeometry>
        </mxCell>
      </root>
    </mxGraphModel>
  </diagram>
</mxfile>
